<svg class="lds-spinner" width="93px"  height="93px"  xmlns="http://www.w3.org/2000/svg" xmlns:xlink="http://www.w3.org/1999/xlink" viewBox="0 0 100 100" preserveAspectRatio="xMidYMid" style="background: none;"><g transform="rotate(0 50 50)">
  <rect x="47" y="24" rx="9.4" ry="4.8" width="6" height="12" fill="#ffff">
    <animate attributeName="opacity" values="1;0" keyTimes="0;1" dur="1.7s" begin="-1.5583333333333333s" repeatCount="indefinite"></animate>
  </rect>
</g><g transform="rotate(30 50 50)">
  <rect x="47" y="24" rx="9.4" ry="4.8" width="6" height="12" fill="#ffff">
    <animate attributeName="opacity" values="1;0" keyTimes="0;1" dur="1.7s" begin="-1.4166666666666667s" repeatCount="indefinite"></animate>
  </rect>
</g><g transform="rotate(60 50 50)">
  <rect x="47" y="24" rx="9.4" ry="4.8" width="6" height="12" fill="#ffff">
    <animate attributeName="opacity" values="1;0" keyTimes="0;1" dur="1.7s" begin="-1.275s" repeatCount="indefinite"></animate>
  </rect>
</g><g transform="rotate(90 50 50)">
  <rect x="47" y="24" rx="9.4" ry="4.8" width="6" height="12" fill="#ffff">
    <animate attributeName="opacity" values="1;0" keyTimes="0;1" dur="1.7s" begin="-1.1333333333333333s" repeatCount="indefinite"></animate>
  </rect>
</g><g transform="rotate(120 50 50)">
  <rect x="47" y="24" rx="9.4" ry="4.8" width="6" height="12" fill="#ffff">
    <animate attributeName="opacity" values="1;0" keyTimes="0;1" dur="1.7s" begin="-0.9916666666666667s" repeatCount="indefinite"></animate>
  </rect>
</g><g transform="rotate(150 50 50)">
  <rect x="47" y="24" rx="9.4" ry="4.8" width="6" height="12" fill="#ffff">
    <animate attributeName="opacity" values="1;0" keyTimes="0;1" dur="1.7s" begin="-0.85s" repeatCount="indefinite"></animate>
  </rect>
</g><g transform="rotate(180 50 50)">
  <rect x="47" y="24" rx="9.4" ry="4.8" width="6" height="12" fill="#ffff">
    <animate attributeName="opacity" values="1;0" keyTimes="0;1" dur="1.7s" begin="-0.7083333333333334s" repeatCount="indefinite"></animate>
  </rect>
</g><g transform="rotate(210 50 50)">
  <rect x="47" y="24" rx="9.4" ry="4.8" width="6" height="12" fill="#ffff">
    <animate attributeName="opacity" values="1;0" keyTimes="0;1" dur="1.7s" begin="-0.5666666666666667s" repeatCount="indefinite"></animate>
  </rect>
</g><g transform="rotate(240 50 50)">
  <rect x="47" y="24" rx="9.4" ry="4.8" width="6" height="12" fill="#ffff">
    <animate attributeName="opacity" values="1;0" keyTimes="0;1" dur="1.7s" begin="-0.425s" repeatCount="indefinite"></animate>
  </rect>
</g><g transform="rotate(270 50 50)">
  <rect x="47" y="24" rx="9.4" ry="4.8" width="6" height="12" fill="#ffff">
    <animate attributeName="opacity" values="1;0" keyTimes="0;1" dur="1.7s" begin="-0.2833333333333333s" repeatCount="indefinite"></animate>
  </rect>
</g><g transform="rotate(300 50 50)">
  <rect x="47" y="24" rx="9.4" ry="4.8" width="6" height="12" fill="#ffff">
    <animate attributeName="opacity" values="1;0" keyTimes="0;1" dur="1.7s" begin="-0.14166666666666666s" repeatCount="indefinite"></animate>
  </rect>
</g><g transform="rotate(330 50 50)">
  <rect x="47" y="24" rx="9.4" ry="4.8" width="6" height="12" fill="#ffff">
    <animate attributeName="opacity" values="1;0" keyTimes="0;1" dur="1.7s" begin="0s" repeatCount="indefinite"></animate>
  </rect>
</g></svg>