<?xml version="1.0" encoding="utf-8"?>
<!-- Generator: Adobe Illustrator 15.0.0, SVG Export Plug-In  -->
<!DOCTYPE svg PUBLIC "-//W3C//DTD SVG 1.1//EN" "http://www.w3.org/Graphics/SVG/1.1/DTD/svg11.dtd" [
	<!ENTITY ns_flows "http://ns.adobe.com/Flows/1.0/">
]>
<svg version="1.1"
	 xmlns="http://www.w3.org/2000/svg" xmlns:xlink="http://www.w3.org/1999/xlink" xmlns:a="http://ns.adobe.com/AdobeSVGViewerExtensions/3.0/"
	 x="0px" y="0px" width="194px" height="45px" viewBox="0 -2.29 194 45" enable-background="new 0 -2.29 194 45"
	 xml:space="preserve">
<defs>
</defs>
<g id="Forma_1_1_">
	<g>
		<path fill-rule="evenodd" clip-rule="evenodd" fill="#D54339" d="M39.933,24.824l0.006-0.003l-6.567-14.583l1.593-0.807
			l-0.596-1.215l-1.553,0.787l-0.21-0.466c-0.153-0.341-0.549-0.49-0.884-0.334c-0.145,0.067-0.262,0.187-0.328,0.334l-0.188,0.417
			c-1.13-0.534-2.36-0.812-3.606-0.813H22V6.785h1.333V5.429h-1.146l0.479-1.952c0.368-1.499-0.528-3.018-2-3.393
			c-1.473-0.374-2.965,0.537-3.333,2.036c-0.109,0.445-0.109,0.911,0,1.356l0.479,1.952h-1.146v1.356H18v1.357h-5.597
			c-1.247,0.001-2.479,0.278-3.61,0.814L8.606,8.54C8.453,8.199,8.057,8.05,7.722,8.206C7.577,8.273,7.46,8.393,7.394,8.54
			l-0.21,0.466l-1.553-0.79L5.035,9.432l1.593,0.811L0.061,24.821C0.02,24.91,0,25.007,0,25.104c0.003,2.622,2.09,4.746,4.667,4.749
			h6.667c2.576-0.003,4.664-2.127,4.667-4.749c-0.001-0.098-0.024-0.193-0.066-0.28L9.348,10.186c0.958-0.452,2-0.687,3.055-0.686
			H18v24.822l-2.276,2.316h-2.391c-1.84,0.003-3.331,1.521-3.333,3.393c0,0.375,0.298,0.679,0.667,0.679h18.667
			c0.368,0,0.667-0.304,0.667-0.679c-0.002-1.872-1.493-3.39-3.333-3.393h-2.391L22,34.322V9.5h5.6
			c1.055-0.001,2.098,0.233,3.055,0.686l-6.594,14.636C24.02,24.91,23.999,25.007,24,25.104c0.003,2.622,2.091,4.746,4.667,4.749
			h6.667c2.576-0.003,4.664-2.127,4.667-4.749C39.998,25.007,39.975,24.911,39.933,24.824z M11.333,28.497H4.667
			c-1.583-0.002-2.948-1.136-3.267-2.714h13.2C14.281,27.361,12.917,28.495,11.333,28.497z M14.294,24.426H1.705l6.124-13.598
			c0.112,0.031,0.229,0.031,0.341,0L14.294,24.426z M18.884,1.911c0.519-0.627,1.439-0.707,2.056-0.179
			c0.063,0.055,0.122,0.114,0.175,0.179c0.27,0.35,0.365,0.806,0.258,1.236l-0.561,2.281h-1.625l-0.561-2.281
			C18.52,2.717,18.615,2.261,18.884,1.911z M19.333,8.143V6.785h1.333v1.357H19.333z M20.667,9.5v24.425h-1.333V9.5H20.667z
			 M26.667,37.996c0.847,0.001,1.602,0.544,1.886,1.356H11.447c0.284-0.813,1.039-1.355,1.886-1.356H26.667z M22.39,36.639h-4.781
			l1.333-1.356h2.115L22.39,36.639z M31.828,10.83c0.11,0.04,0.231,0.035,0.337-0.014l6.129,13.609H25.705L31.828,10.83z
			 M35.333,28.497h-6.667c-1.584-0.002-2.948-1.136-3.267-2.714h13.2C38.281,27.361,36.917,28.495,35.333,28.497z"/>
	</g>
</g>
<g id="Soma_Law_1_">
	<g>
		<path fill-rule="evenodd" clip-rule="evenodd" fill="#444444" d="M69.683,20.908c-0.657-0.561-1.556-1.218-2.697-1.973
			l-0.928-0.638c-1.083-0.715-1.885-1.28-2.407-1.696s-0.928-0.875-1.218-1.378c-0.29-0.502-0.435-1.092-0.435-1.769
			c0-0.908,0.295-1.629,0.885-2.16c0.589-0.532,1.358-0.798,2.306-0.798c0.966,0,1.813,0.295,2.537,0.885
			c0.725,0.59,1.286,1.358,1.682,2.305c0.396,0.948,0.633,1.943,0.71,2.987h0.667c0-3.112,0.048-5.316,0.145-6.612h-0.667
			c-0.058,0.445-0.135,0.769-0.232,0.972c-0.097,0.203-0.232,0.305-0.406,0.305c-0.116,0-0.257-0.038-0.421-0.116
			c-0.164-0.077-0.353-0.174-0.565-0.29c-0.619-0.367-1.228-0.647-1.827-0.841s-1.402-0.29-2.407-0.29
			c-1.18,0-2.262,0.193-3.248,0.58s-1.774,0.981-2.363,1.783c-0.59,0.803-0.885,1.784-0.885,2.944c0,1.005,0.222,1.89,0.667,2.653
			s1.015,1.426,1.711,1.986c0.696,0.561,1.624,1.218,2.784,1.972c1.508,0.967,2.61,1.837,3.306,2.61
			c0.696,0.773,1.044,1.701,1.044,2.784c0,1.044-0.338,1.846-1.015,2.406c-0.677,0.562-1.537,0.842-2.581,0.842
			c-1.721,0-2.997-0.672-3.828-2.016s-1.315-3.099-1.45-5.264H57.88c0,4.002-0.039,6.612-0.116,7.83h0.667
			c0.058-0.444,0.135-0.769,0.232-0.972s0.232-0.305,0.406-0.305c0.232,0,0.561,0.136,0.986,0.406
			c0.599,0.329,1.257,0.59,1.972,0.783c0.715,0.192,1.614,0.29,2.697,0.29c1.334,0,2.547-0.213,3.64-0.639
			c1.092-0.425,1.958-1.058,2.596-1.899c0.638-0.841,0.957-1.88,0.957-3.117c0-0.986-0.208-1.851-0.624-2.596
			C70.877,22.121,70.34,21.469,69.683,20.908z M81.283,15.311c-2.204,0-3.939,0.634-5.206,1.9c-1.267,1.266-1.899,3.272-1.899,6.017
			c0,2.746,0.633,4.747,1.899,6.004c1.266,1.257,3.001,1.885,5.206,1.885c2.223,0,3.963-0.628,5.22-1.885
			c1.256-1.257,1.885-3.258,1.885-6.004c0-2.744-0.628-4.751-1.885-6.017C85.246,15.944,83.506,15.311,81.283,15.311z
			 M83.284,28.753c-0.483,1.188-1.15,1.783-2.001,1.783c-0.832,0-1.494-0.6-1.986-1.798c-0.493-1.199-0.74-3.035-0.74-5.511
			c0-2.474,0.247-4.315,0.74-5.524c0.493-1.208,1.155-1.813,1.986-1.813c0.831,0,1.494,0.6,1.986,1.798
			c0.493,1.199,0.74,3.046,0.74,5.539C84.009,25.722,83.767,27.563,83.284,28.753z M113.501,28.013v-7.801
			c0-0.967-0.067-1.749-0.203-2.349c-0.135-0.6-0.357-1.073-0.666-1.421c-0.658-0.755-1.721-1.132-3.19-1.132
			c-1.083,0-2.03,0.218-2.842,0.653c-0.812,0.435-1.47,1.174-1.972,2.218c-0.117-0.772-0.358-1.353-0.726-1.739
			c-0.657-0.755-1.721-1.132-3.19-1.132c-2.146,0-3.645,0.899-4.495,2.697v-2.609c-1.102,0.271-2.513,0.405-4.234,0.405
			c-0.58,0-1.18-0.028-1.798-0.087v0.609c0.696,0,1.179,0.203,1.45,0.608c0.271,0.406,0.406,1.055,0.406,1.943v9.135
			c0,0.793-0.136,1.339-0.406,1.639c-0.271,0.3-0.754,0.449-1.45,0.449v0.609c2.088-0.077,3.422-0.116,4.002-0.116
			s1.72,0.039,3.422,0.116v-0.609c-0.522,0-0.884-0.149-1.087-0.449s-0.305-0.846-0.305-1.639v-8.062
			c0-0.947,0.275-1.745,0.827-2.393c0.551-0.647,1.213-0.972,1.986-0.972c0.619,0,1.034,0.198,1.247,0.595
			c0.212,0.396,0.319,1,0.319,1.813v9.019c0,0.793-0.102,1.339-0.305,1.639s-0.565,0.449-1.088,0.449v0.609
			c1.856-0.077,3.055-0.116,3.596-0.116c0.58,0,1.799,0.039,3.654,0.116v-0.609c-0.638,0-1.078-0.149-1.319-0.449
			s-0.362-0.846-0.362-1.639v-7.801V19.69c0.097-0.87,0.41-1.605,0.942-2.204c0.532-0.6,1.155-0.899,1.87-0.899
			c0.677,0,1.136,0.198,1.378,0.595c0.241,0.396,0.362,1,0.362,1.813v9.019c0,0.813-0.102,1.363-0.305,1.653
			s-0.564,0.435-1.087,0.435v0.609c1.856-0.077,3.054-0.116,3.596-0.116c0.618,0,1.895,0.039,3.828,0.116v-0.609
			c-0.677,0-1.155-0.149-1.436-0.449S113.501,28.806,113.501,28.013z M129.278,29.84c-0.251,0-0.421-0.097-0.507-0.29
			c-0.088-0.193-0.131-0.521-0.131-0.986v-7.888c0-1.063-0.072-1.904-0.218-2.522c-0.146-0.619-0.431-1.141-0.855-1.566
			c-0.464-0.464-1.044-0.792-1.74-0.986c-0.696-0.192-1.518-0.29-2.465-0.29c-0.909,0-1.745,0.088-2.509,0.262
			s-1.406,0.416-1.928,0.725c-0.542,0.329-0.943,0.682-1.204,1.059s-0.392,0.837-0.392,1.378c0,0.638,0.184,1.17,0.551,1.595
			c0.367,0.426,0.89,0.638,1.566,0.638c0.639,0,1.18-0.193,1.624-0.58s0.667-0.908,0.667-1.565c0-0.522-0.15-0.977-0.449-1.363
			c-0.301-0.387-0.721-0.677-1.262-0.87c0.482-0.464,1.189-0.696,2.117-0.696c0.793,0,1.377,0.228,1.754,0.682
			c0.377,0.455,0.566,1.088,0.566,1.899v2.263c0,0.521-0.247,0.933-0.74,1.232c-0.492,0.3-1.271,0.633-2.334,1
			c-1.006,0.349-1.832,0.677-2.48,0.986c-0.647,0.31-1.198,0.749-1.652,1.319c-0.455,0.57-0.682,1.29-0.682,2.16
			c0,1.044,0.305,1.886,0.914,2.523c0.608,0.638,1.531,0.957,2.77,0.957c1.875,0,3.295-0.783,4.263-2.35
			c0.019,0.716,0.241,1.286,0.667,1.712c0.425,0.425,1.17,0.638,2.232,0.638c1.257,0,2.32-0.357,3.19-1.073l-0.29-0.493
			C129.916,29.676,129.568,29.84,129.278,29.84z M124.464,27.868c-0.562,0.793-1.219,1.188-1.973,1.188
			c-0.541,0-0.977-0.188-1.305-0.565c-0.329-0.377-0.493-0.961-0.493-1.754c0-0.909,0.192-1.604,0.58-2.088
			c0.386-0.483,0.957-0.967,1.711-1.45c0.754-0.464,1.247-0.89,1.479-1.276V27.868z M154.333,23.576h-0.667
			c-0.29,1.953-0.913,3.519-1.87,4.698c-0.957,1.179-2.094,1.769-3.408,1.769h-1.421c-0.542,0-0.933-0.048-1.175-0.145
			s-0.41-0.285-0.507-0.566c-0.097-0.279-0.146-0.729-0.146-1.348V13.252c0-0.734,0.059-1.266,0.174-1.595
			c0.117-0.329,0.334-0.551,0.652-0.667c0.32-0.116,0.827-0.193,1.523-0.232v-0.58c-1.064,0.059-2.581,0.087-4.553,0.087
			c-2.069,0-3.597-0.028-4.582-0.087v0.58c0.638,0.039,1.105,0.116,1.406,0.232c0.299,0.116,0.502,0.338,0.609,0.667
			c0.105,0.329,0.158,0.86,0.158,1.595v14.384c0,0.735-0.053,1.267-0.158,1.596c-0.107,0.328-0.311,0.551-0.609,0.667
			c-0.301,0.115-0.769,0.193-1.406,0.231v0.58c2.088-0.058,5.238-0.087,9.453-0.087c3.113,0,5.326,0.029,6.642,0.087
			c-0.136-1.198-0.203-2.726-0.203-4.582C154.247,25.084,154.275,24.233,154.333,23.576z M168.63,29.84
			c-0.252,0-0.42-0.097-0.508-0.29c-0.087-0.193-0.131-0.521-0.131-0.986v-7.888c0-1.063-0.072-1.904-0.217-2.522
			c-0.145-0.619-0.431-1.141-0.855-1.566c-0.465-0.464-1.044-0.792-1.74-0.986c-0.695-0.192-1.518-0.29-2.465-0.29
			c-0.909,0-1.745,0.088-2.509,0.262s-1.406,0.416-1.929,0.725c-0.541,0.329-0.941,0.682-1.203,1.059
			c-0.261,0.377-0.392,0.837-0.392,1.378c0,0.638,0.184,1.17,0.552,1.595c0.366,0.426,0.889,0.638,1.565,0.638
			c0.638,0,1.179-0.193,1.624-0.58c0.444-0.387,0.667-0.908,0.667-1.565c0-0.522-0.149-0.977-0.45-1.363
			c-0.299-0.387-0.72-0.677-1.261-0.87c0.483-0.464,1.188-0.696,2.116-0.696c0.793,0,1.378,0.228,1.755,0.682
			c0.378,0.455,0.565,1.088,0.565,1.899v2.263c0,0.521-0.246,0.933-0.739,1.232s-1.271,0.633-2.335,1
			c-1.005,0.349-1.832,0.677-2.479,0.986c-0.648,0.31-1.199,0.749-1.653,1.319s-0.682,1.29-0.682,2.16
			c0,1.044,0.305,1.886,0.913,2.523c0.609,0.638,1.532,0.957,2.77,0.957c1.875,0,3.297-0.783,4.264-2.35
			c0.019,0.716,0.241,1.286,0.666,1.712c0.426,0.425,1.17,0.638,2.234,0.638c1.256,0,2.319-0.357,3.189-1.073l-0.29-0.493
			C169.268,29.676,168.92,29.84,168.63,29.84z M163.816,27.868c-0.561,0.793-1.218,1.188-1.972,1.188
			c-0.542,0-0.977-0.188-1.306-0.565c-0.328-0.377-0.492-0.961-0.492-1.754c0-0.909,0.193-1.604,0.58-2.088s0.957-0.967,1.711-1.45
			c0.754-0.464,1.247-0.89,1.479-1.276V27.868z M190.438,15.804c-1.083,0-2.078-0.028-2.987-0.087v0.58
			c1.527,0.116,2.291,0.928,2.291,2.437c0,0.561-0.135,1.295-0.406,2.203l-1.826,5.829l-3.77-11.078l-1.045,0.029l-1.072-0.029
			l-3.162,10.47l-2.609-8.207c-0.097-0.271-0.145-0.532-0.145-0.783c0-0.367,0.14-0.599,0.42-0.696
			c0.28-0.097,0.74-0.145,1.377-0.145v-0.609c-1.547,0.116-2.803,0.174-3.77,0.174c-1.488,0-2.861-0.058-4.117-0.174v0.609
			c0.309,0,0.608,0.102,0.898,0.305c0.29,0.202,0.551,0.643,0.783,1.319l4.582,12.817c0.213-0.02,0.531-0.028,0.957-0.028
			c0.425,0,0.734,0.009,0.928,0.028l3.219-10.759l3.944,10.759c0.212-0.02,0.522-0.028,0.928-0.028c0.425,0,0.744,0.009,0.957,0.028
			l3.856-11.977c0.252-0.813,0.541-1.401,0.871-1.77c0.328-0.366,0.695-0.608,1.102-0.725v-0.58
			C192.159,15.775,191.424,15.804,190.438,15.804z"/>
	</g>
</g>
</svg>
